<svg width="200" height="340" viewBox="0 0 200 340" fill="none" xmlns="http://www.w3.org/2000/svg">
<path d="M60.1459 2.50746C39.4477 -1.42307 17.1971 4.3417 0.638574 17.9676C-0.396336 18.7537 -0.137577 20.8499 1.15606 21.374C14.8686 28.973 31.1684 31.3314 46.4333 28.711C50.3143 28.187 53.9364 27.1388 57.5586 25.8286C61.1808 24.5184 64.5442 23.2083 67.6489 20.85C70.4949 18.7537 73.3409 15.8712 73.8584 12.2027C74.3758 8.79627 72.8235 5.65188 70.2362 3.55559C64.5442 -0.899016 56.0062 -0.11294 49.2793 0.411131C41 1.19724 32.9795 3.03149 25.4764 5.65184C21.8542 6.96202 18.232 8.53422 14.6098 10.6305C12.7987 11.6787 10.9876 12.7268 9.17655 13.775C7.62418 14.8231 6.07186 15.6093 4.77823 16.9194C2.19095 19.8018 2.70838 23.4703 5.55438 25.8286C8.14165 27.9249 11.2464 28.9731 13.5749 31.0693C18.7495 36.048 21.0781 43.385 23.1479 50.1979C25.9939 58.321 28.3224 66.4441 30.1335 74.8293C34.0144 91.0755 36.6016 107.846 37.6366 124.354C39.7064 158.157 36.0842 191.959 26.5113 224.452C24.1828 232.575 21.3367 240.698 18.232 248.559C15.386 255.896 12.2813 263.233 9.69403 270.832C5.03694 284.72 2.44963 300.966 10.4702 314.068C18.4907 327.432 34.2731 333.197 48.7619 336.603C63.2506 340.009 78.2568 340.796 93.0043 339.223C122.758 336.079 151.735 324.025 176.056 306.207C182.006 301.752 188.475 297.036 193.39 291.271C195.978 288.126 198.306 284.72 199.341 280.789C200.376 276.597 200.117 272.404 199.082 268.474C197.013 260.089 192.356 252.752 187.957 245.677C183.3 238.34 178.643 231.003 173.727 223.666C153.805 194.58 132.072 167.066 112.926 137.456C95.0741 109.418 79.2917 79.5459 71.7886 46.7915C69.9775 38.9304 68.6839 31.0693 67.9077 23.2083C67.649 20.5879 63.5093 20.5879 63.768 23.2083C66.3553 55.4387 77.7394 85.8348 93.0043 113.873C109.045 143.221 129.226 170.21 148.631 197.2C158.462 210.826 168.294 224.714 177.608 238.864C182.265 245.939 186.922 253.014 190.545 260.613C193.908 267.426 196.495 275.549 192.873 282.624C189.51 289.174 183.3 293.891 177.608 298.346C171.916 302.8 165.965 306.993 159.756 310.661C147.337 317.998 134.142 324.025 120.429 328.218C93.2629 336.341 62.7332 337.651 35.8255 327.432C29.0986 324.811 22.8892 321.143 17.9733 315.902C13.575 310.923 10.729 304.373 10.2115 297.822C8.91788 282.886 15.386 268.212 20.8193 254.848C32.9795 224.714 40.4826 193.007 42.2937 160.515C44.3635 128.023 40.7413 95.006 31.9446 63.5618C29.8748 55.9627 27.5463 48.1016 24.4415 40.7646C21.8542 34.4758 18.4908 28.187 12.54 24.7805C11.2464 23.9944 5.55436 22.4221 6.58927 20.3259C7.36545 19.0157 9.17661 18.2296 10.2115 17.4435C12.0226 16.3953 13.8336 15.3472 15.6447 14.561C22.8891 11.1546 30.3922 8.53424 38.154 6.96202C42.035 6.17592 45.9159 5.65183 49.7968 5.38979C53.1602 5.12776 56.7824 4.86572 60.1459 5.38979C62.4744 5.65183 65.5792 6.43797 66.8728 8.53425C68.6839 11.1546 66.3554 13.775 64.5443 15.6093C61.957 17.9676 58.3348 19.2777 55.2301 20.5879C51.6079 21.8981 47.9857 22.9462 44.3635 23.4703C37.1191 24.7805 29.616 25.0425 22.3717 23.9943C15.386 22.9462 8.40039 20.8499 1.93221 17.4435C2.19094 18.4916 2.19097 19.8018 2.4497 20.85C17.7146 7.74818 38.6715 2.50746 58.5935 5.12782C61.1808 5.38986 61.4395 2.7695 60.1459 2.50746Z" fill="#FFD300"/>
<path d="M63.5095 162.873C64.8032 195.889 49.797 226.81 35.567 255.634C29.0988 268.735 19.7847 284.72 27.029 299.394C32.4623 310.661 45.3986 314.854 57.0414 315.902C63.5095 316.688 69.9777 316.426 76.4459 315.902C84.9839 315.378 93.522 314.33 102.06 313.019C115.773 310.923 130.52 308.565 142.68 301.228C148.113 298.083 152.771 293.629 155.617 287.864C159.239 280.789 159.497 272.928 157.945 265.329C156.393 257.73 153.288 250.131 149.925 243.318C146.302 235.719 142.68 228.382 138.54 221.045C130.779 206.371 122.241 191.959 112.927 178.071C110.598 174.403 108.269 170.996 105.682 167.328C103.612 164.183 101.542 161.039 98.9552 158.418C96.3679 155.798 93.0045 154.488 89.3823 155.012C84.9839 155.536 80.8443 156.846 76.4459 157.632C72.3063 158.68 68.1667 159.466 64.027 160.515C61.4398 161.039 62.4746 164.969 65.0619 164.445C69.2016 163.659 73.3412 162.611 77.4809 161.825C81.3618 161.039 85.5014 159.728 89.3823 159.204C93.0045 158.942 95.3331 160.777 97.4029 163.397C99.7315 166.541 101.801 169.948 104.13 173.092C112.926 186.456 121.206 200.082 128.968 213.97C132.848 221.045 136.729 228.12 140.352 235.195C143.715 242.008 147.337 248.821 149.925 255.896C152.512 262.708 154.323 270.046 153.547 277.383C152.77 283.671 149.407 289.174 144.491 293.367C134.918 301.752 121.464 304.372 109.304 306.469C101.025 308.041 93.0045 309.089 84.7252 309.875C77.7396 310.661 70.7539 311.185 63.7683 310.923C53.1605 310.661 40.4828 309.089 32.9797 300.442C23.1481 288.912 30.9099 272.928 36.8607 261.66C50.5732 234.147 65.3206 205.061 66.0968 173.616C66.0968 169.948 66.0969 166.279 65.8382 162.611C66.0969 161.039 63.5095 161.039 63.5095 162.873Z" fill="#FFD300"/>
<path d="M69.9774 164.708C72.8234 188.029 75.6694 211.088 78.5154 234.409C79.2916 240.96 80.0678 247.511 81.1027 254.062C82.3963 253.538 83.9487 253.276 85.2423 252.752C82.1376 230.217 77.998 207.944 73.5996 185.67C72.306 179.382 71.0123 173.093 69.7187 166.804C68.4251 167.066 67.1314 167.59 65.8378 167.852C72.0473 194.056 71.7885 221.307 69.9774 248.297C69.4599 255.896 68.9425 263.495 68.4251 271.356C69.9774 271.356 71.5298 271.356 73.0821 271.356C71.271 248.821 69.9774 226.024 69.9774 203.489C69.9774 197.2 69.9774 190.649 70.2361 184.36C70.2361 181.74 66.3552 181.74 66.0965 184.36C64.8028 208.206 60.1458 231.527 54.9712 254.848C53.4189 261.399 51.8665 268.212 50.3142 274.763C51.8665 275.025 53.1601 275.287 54.7125 275.287C56.5236 253.8 59.3696 232.575 64.0267 211.35C65.3203 205.323 66.614 199.296 68.1663 193.532C66.8727 193.27 65.5791 192.745 64.2854 192.483C60.1458 217.115 53.1602 241.484 43.846 264.805C41.2587 271.356 38.4127 277.907 35.3079 284.458C36.6016 284.982 37.8952 285.506 39.1888 286.03C43.0697 270.308 46.9507 254.324 51.0903 238.34C51.8665 235.719 48.2443 234.933 47.2094 237.291C40.2238 255.11 34.2731 273.19 29.616 291.533C30.9096 291.795 32.2032 292.319 33.4969 292.581C38.154 272.928 47.4681 254.586 57.2997 237.291C60.1457 232.313 62.9918 227.334 65.8378 222.355C64.5442 221.831 63.5092 221.307 62.2155 220.783C55.2299 242.794 47.9856 264.805 44.6221 287.602C43.5872 294.153 42.8111 300.442 42.5523 306.993C42.5523 309.351 45.9158 309.875 46.4332 307.517C49.0205 296.25 47.4681 284.72 42.811 274.501C42.0348 273.19 39.4476 273.19 39.1888 275.025C37.8952 283.934 38.9301 292.843 41.7761 301.49C42.811 300.966 43.846 300.442 45.1396 300.18C42.0349 294.939 37.8952 290.485 32.7206 287.34C31.427 286.554 30.1334 287.602 29.8746 288.913C28.8397 301.752 41.5174 313.282 53.9363 311.71C57.0411 311.448 60.1457 310.137 62.2155 307.517C64.2854 304.635 64.5441 301.228 64.8028 297.822C65.3203 288.913 66.0965 280.003 66.6139 271.094C67.3901 261.137 67.9076 251.179 68.4251 241.222C67.1314 241.222 65.5791 241.222 64.2854 241.222C64.2854 259.302 64.0267 277.383 64.0267 295.463C65.3203 295.463 66.8727 295.463 68.1663 295.463C65.5791 275.811 65.0616 255.634 66.6139 235.981C66.8727 233.361 63.5092 233.361 62.733 235.457C53.9363 257.73 52.3839 282.362 58.5934 305.421C59.3696 308.041 62.9917 306.993 62.4743 304.373C61.1807 298.346 60.6632 292.319 61.4394 286.292C60.4045 286.816 59.3696 287.34 58.3346 288.126C61.6981 289.961 64.0267 293.367 67.1314 295.725C70.4949 298.084 74.8932 298.608 78.2567 295.725C81.8789 292.581 82.9138 287.078 83.69 282.624C84.4662 276.859 84.2074 270.832 84.2074 264.805C84.2074 240.436 83.9487 216.067 83.9487 191.435C83.9487 188.029 83.9487 184.622 83.9487 181.216C83.9487 178.071 84.2074 174.665 83.69 171.521C83.4312 168.638 82.3963 166.018 80.0678 164.184C77.998 162.611 75.4107 161.825 72.8234 162.349C70.7536 162.873 71.0123 165.756 72.8234 166.542C76.1868 167.852 80.0678 166.804 83.4312 166.018C86.2772 165.232 90.1581 163.66 92.7453 166.28C94.2977 168.114 95.3327 170.472 96.3676 172.569C97.6612 174.927 98.9549 177.285 100.249 179.906C102.836 184.884 105.423 189.601 108.01 194.58C113.185 204.275 118.359 214.232 123.534 223.928C128.45 233.361 133.883 242.794 138.54 252.49C143.456 262.447 147.337 273.19 147.337 284.458C147.337 287.34 151.218 287.864 152.253 285.244C155.616 275.287 153.029 264.543 149.665 254.848C146.043 244.891 142.162 235.457 137.505 226.024C133.107 216.591 127.932 207.157 122.499 198.248C119.912 193.794 117.066 189.339 114.22 185.146C111.633 181.478 109.304 177.809 105.941 174.665C102.06 171.259 97.4026 169.424 92.228 169.686C86.536 169.948 81.1027 172.569 76.1869 175.189C76.7043 176.237 77.2217 177.023 77.7392 178.071C82.1376 175.189 86.5359 172.307 90.9343 169.686C91.9692 168.9 91.9692 167.066 90.6756 166.804C85.7597 165.494 80.844 166.804 76.963 169.948C75.6694 170.996 76.9631 173.093 78.5154 172.569C81.8789 171.521 85.2423 170.734 88.6058 169.686C87.8296 169.162 87.3122 168.638 86.536 168.114C85.7598 173.617 83.6899 179.12 80.5852 183.574C79.809 184.884 81.1027 186.195 82.3963 185.933C87.5709 185.146 92.7453 184.098 97.9199 182.788C97.4024 182.002 96.6264 181.216 96.1089 180.43C92.7455 185.146 89.1232 189.863 85.7598 194.842C84.9836 195.89 86.2772 197.462 87.5709 197.2C93.0042 195.366 98.1787 193.794 103.612 191.959C103.094 191.173 102.577 190.125 102.06 189.339C96.6264 195.104 91.9692 201.655 88.347 208.73C87.5708 210.04 88.8645 211.35 90.1582 211.088C95.3327 210.302 100.249 209.516 105.423 208.73C104.906 207.944 104.388 206.895 103.871 206.109C96.6264 214.232 88.6058 221.569 79.8091 228.12C78.5154 229.168 79.2916 231.527 81.1027 231.003C94.8152 227.072 108.787 224.19 122.758 222.093C122.24 221.307 121.464 220.521 120.947 219.735C115.255 229.43 108.528 238.602 101.025 246.725C99.4723 248.297 101.801 250.655 103.353 249.083C111.115 240.698 117.842 231.265 123.793 221.307C124.569 219.997 123.275 218.687 121.982 218.949C108.01 221.045 94.039 223.928 80.3265 227.858C80.8439 228.906 81.1026 229.954 81.6201 230.741C90.4168 224.19 98.6961 216.591 106.199 208.206C107.234 206.895 106.199 205.323 104.647 205.585C99.4724 206.371 94.5565 207.157 89.3819 207.944C89.8994 208.73 90.6756 209.516 91.193 210.302C94.8152 203.489 99.2135 197.2 104.388 191.697C105.423 190.649 104.388 188.553 102.836 189.077C97.4025 190.911 92.2279 192.483 86.7947 194.318C87.3121 195.104 88.0883 195.89 88.6058 196.676C91.9692 191.959 95.5914 186.981 98.9549 182.264C99.731 181.216 98.4374 179.644 97.1437 179.906C91.9692 181.216 86.7947 182.264 81.6201 183.05C82.1376 183.836 82.9138 184.622 83.4312 185.408C87.0534 180.168 89.1232 174.403 89.8994 168.376C89.8994 167.328 88.8645 166.542 87.8296 166.804C84.4662 167.852 81.1026 168.638 77.7392 169.686C78.2566 170.472 78.7741 171.521 79.2916 172.307C82.1376 169.948 86.2772 169.162 89.8994 169.948C89.8994 168.9 89.6407 168.114 89.6407 167.066C85.2423 169.948 80.8439 172.569 76.4456 175.451C74.6345 176.499 76.1868 179.12 77.9979 178.333C82.3963 176.237 87.0534 174.141 91.9692 173.879C96.1088 173.617 100.249 175.189 103.353 177.809C106.458 180.692 108.787 184.098 111.115 187.767C113.702 191.697 116.29 195.89 118.877 200.082C128.967 216.853 137.247 234.671 144.232 253.014C147.854 262.971 151.477 273.976 147.854 284.458C149.407 284.72 151.218 284.982 152.77 285.244C152.77 274.763 149.665 264.805 145.526 255.372C141.127 245.415 135.694 235.719 130.52 226.024C125.086 215.805 119.653 205.585 114.22 195.628C111.633 190.649 108.786 185.408 106.199 180.43C103.612 175.451 101.283 170.472 98.4374 165.756C95.8501 161.563 91.4517 160.515 86.7947 161.301C82.9137 162.087 78.7742 164.446 74.8933 162.873C74.8933 164.184 74.8933 165.756 74.8933 167.066C76.7043 166.542 78.2567 167.59 79.2916 169.162C80.5852 170.996 80.3265 173.617 80.5852 175.975C80.5852 181.478 80.5852 186.981 80.5852 192.483C80.5852 203.489 80.5852 214.494 80.844 225.238C80.844 236.243 80.844 247.249 81.1027 257.992C81.1027 263.233 81.1027 268.736 81.1027 273.976C81.1027 278.955 80.8439 284.196 79.0328 288.913C78.2566 290.747 77.2217 292.581 75.1519 293.367C73.5996 293.891 72.0472 293.367 70.4949 292.319C67.1314 289.961 64.8028 286.554 61.1807 284.458C59.6283 283.672 58.3347 284.72 58.076 286.292C57.2998 292.581 57.8172 299.132 59.3696 305.421C60.6632 305.159 61.9569 304.635 63.2505 304.373C57.2998 281.838 58.8521 257.992 67.3901 236.505C66.0965 236.243 64.8028 236.243 63.5092 235.981C61.9568 255.896 62.4743 275.811 65.0616 295.463C65.3203 298.084 69.2012 298.346 69.2012 295.463C69.2012 277.383 69.46 259.302 69.46 241.222C69.46 238.34 65.3203 238.602 65.3203 241.222C64.2854 256.944 63.2505 272.404 62.4743 288.126C62.2156 292.057 61.9569 295.725 61.6981 299.656C61.4394 302.538 60.922 305.421 58.076 306.993C53.1602 309.613 46.692 307.517 42.2936 304.635C37.3778 301.228 34.0143 295.201 34.5318 289.175C33.4969 289.699 32.7207 290.223 31.6858 290.747C36.3428 293.629 39.965 297.56 42.811 302.276C43.8459 304.111 46.692 302.8 46.1745 300.966C43.3285 293.105 42.5523 284.72 43.5872 276.597C42.2936 276.859 41.2587 276.859 39.9651 277.121C44.1047 286.554 45.3983 297.036 43.0697 306.993C44.3634 307.255 45.657 307.255 46.9507 307.517C48.2443 284.72 53.9363 262.447 60.6632 240.96C62.4743 234.671 64.5441 228.644 66.6139 222.355C67.3901 220.259 64.0267 218.949 62.9918 220.783C52.6427 238.34 42.2936 256.158 35.3079 275.549C33.2381 281.051 31.6857 286.554 30.1334 292.057C29.6159 294.677 33.2381 295.725 34.0143 293.105C38.6714 274.763 44.6222 256.42 51.6078 238.864C50.3142 238.602 49.0205 238.078 47.7269 237.816C43.846 253.538 39.7063 269.522 35.8254 285.244C35.308 287.34 38.6714 289.175 39.7063 286.816C50.5729 263.757 59.1108 239.65 64.8028 215.018C66.3552 207.943 67.9076 201.131 68.9425 194.056C69.4599 191.435 65.579 190.387 65.0616 193.007C59.6283 214.232 55.7474 235.719 52.9014 257.206C52.1252 263.495 51.349 269.522 51.0903 275.811C50.8316 278.431 54.9712 278.955 55.4887 276.335C60.922 252.752 66.3552 229.43 69.2012 205.323C69.9774 198.51 70.7536 191.697 71.0123 184.884C69.7187 184.884 68.1663 184.884 66.8727 184.884C66.3552 207.681 66.6139 230.217 67.9076 253.014C68.1663 259.302 68.6838 265.853 69.2012 272.142C69.4599 275.025 73.5996 275.025 73.8583 272.142C75.6694 244.891 77.7392 217.639 74.6345 190.649C73.8583 183.05 72.5647 175.451 70.7536 167.852C70.2361 165.232 66.3552 166.28 66.8727 168.9C71.7885 190.911 75.9281 212.922 79.2916 235.457C80.3265 241.746 81.1027 248.297 81.8788 254.586C82.1376 255.896 82.655 256.682 84.2074 256.944C85.2423 256.944 86.536 255.896 86.536 254.586C83.69 231.265 80.3265 208.206 76.963 185.146C75.9281 178.596 75.1519 172.045 74.117 165.494C73.0821 162.349 69.9774 162.873 69.9774 164.708Z" fill="#FFD300"/>
<path d="M90.6754 166.541C101.801 192.221 112.926 217.638 124.31 243.318C127.415 250.655 130.778 257.73 133.883 265.067C134.918 267.163 138.023 265.329 136.988 263.232C125.862 238.601 114.737 213.708 103.612 189.076C100.507 182.001 97.1436 174.926 94.0389 167.851C93.5214 166.803 92.2279 167.065 91.7104 167.851C88.0882 173.354 90.6755 180.167 92.4866 185.67C94.5564 192.221 97.1436 198.772 99.7309 205.323C104.647 218.162 109.821 231.002 113.185 244.628C114.996 252.227 116.289 259.826 116.548 267.425C117.583 267.163 118.618 267.163 119.653 266.901C111.632 243.318 103.353 219.735 95.3325 195.889C93.004 189.076 90.6755 182.263 88.3469 175.451C88.0882 174.664 87.0533 174.14 86.2771 174.664C82.3962 177.285 81.8788 182.263 82.3962 186.718C83.1724 193.007 84.9835 199.034 86.5359 205.061C89.6406 218.162 93.004 231.264 96.885 244.366C98.9548 251.703 101.283 259.04 103.612 266.377C104.388 266.115 105.423 265.591 106.199 265.329C99.9896 253.799 95.5914 241.484 92.2279 228.906C88.8644 216.59 86.5359 203.75 83.9486 191.173C82.655 184.36 80.8438 177.547 76.9629 171.782C75.928 170.21 73.8582 171.258 74.1169 173.092C79.2914 200.082 85.7597 226.547 93.5215 253.013C94.5564 256.419 95.5912 259.826 96.6261 262.97C97.4023 265.591 98.1786 268.211 99.4722 270.569C101.283 274.238 105.682 276.858 109.304 273.714C112.409 271.094 112.409 265.853 111.632 262.184C110.339 255.371 108.786 248.558 107.493 241.746C104.129 226.547 100.248 211.349 96.1088 196.413C95.8501 195.103 93.5215 195.365 93.5215 196.675C94.8152 207.943 96.6262 219.21 98.9547 230.478C100.248 236.243 101.542 241.746 103.353 247.51C104.647 251.965 105.94 256.42 107.752 260.612C109.821 265.329 112.926 269.783 116.807 272.928C118.359 273.976 120.429 271.88 118.877 270.832C111.632 265.329 108.528 256.682 106.199 248.034C103.094 237.291 100.507 226.547 98.6961 215.542C97.6612 209.253 96.6262 202.964 95.85 196.675C95.0738 196.675 94.2976 196.937 93.2627 196.937C96.6262 209.253 99.7309 221.569 102.836 234.147C104.388 240.435 105.682 246.724 106.975 253.013C107.493 256.157 108.269 259.302 108.786 262.446C109.304 264.543 109.304 266.639 108.786 268.473C108.269 270.045 107.493 271.88 105.682 271.88C103.353 271.88 102.06 269.783 101.283 267.949C100.248 265.329 99.4723 262.446 98.6961 259.826C97.6612 256.682 96.885 253.799 96.1088 250.655C92.4866 238.339 89.3818 226.285 86.2771 213.97C82.9137 200.082 79.8089 185.932 77.2217 171.782C76.1868 172.306 75.4106 172.568 74.3756 173.092C80.8438 183.836 82.1375 196.937 84.7247 208.991C87.312 221.569 90.4168 234.409 94.8152 246.462C97.4024 253.275 100.248 260.088 103.612 266.377C104.388 267.949 106.717 266.901 106.199 265.329C98.4373 241.221 91.9691 216.852 86.5359 191.959C85.501 187.504 83.1724 179.905 87.5708 176.761C86.7946 176.499 86.2771 176.237 85.5009 175.975C93.7802 199.558 101.542 223.403 109.304 246.986C111.632 253.799 113.702 260.612 116.031 267.425C116.548 269.259 119.394 268.997 119.135 266.901C118.359 239.649 105.682 214.756 96.6261 189.6C95.3325 186.194 94.0389 182.788 93.2627 179.119C92.2278 175.713 91.4517 171.782 93.5215 168.638C92.7453 168.638 91.9691 168.638 91.1929 168.638C102.318 193.269 113.185 218.162 124.051 243.056C127.156 250.131 130.261 257.206 133.365 264.281C134.4 263.757 135.435 262.97 136.47 262.446C130.778 249.607 125.086 237.029 119.394 224.189C113.702 211.611 108.01 198.772 102.318 186.194C98.9547 179.119 95.5913 171.782 92.4866 164.707C91.9691 163.921 89.8993 165.231 90.6754 166.541Z" fill="#FFD300"/>
<path d="M127.156 234.148C107.751 237.816 93.5214 252.752 77.2216 262.71C72.5645 265.592 67.3899 267.95 62.2153 269.26C62.7328 270.047 63.2502 270.833 63.509 271.619C82.9135 256.421 103.612 242.271 125.086 229.955C126.121 229.431 126.121 227.597 124.827 227.335C119.912 226.287 115.254 227.597 110.856 229.431C105.94 231.527 101.283 233.886 96.626 236.244C86.7944 240.961 76.9628 245.677 67.3899 250.394C67.9073 251.18 68.4248 251.966 68.9423 253.014C84.4659 241.223 99.7308 229.431 115.254 217.639C114.478 216.853 113.961 216.329 113.185 215.543C104.905 228.645 91.4515 237.816 76.7041 241.223C76.9628 242.009 77.4802 243.057 77.739 243.843C86.5357 238.864 94.815 232.837 102.318 226.025C101.542 225.238 101.024 224.714 100.248 223.928C86.5357 236.768 75.9279 252.752 69.9771 270.309C69.4597 271.881 71.5295 272.929 72.5644 271.881C82.1373 261.923 91.4515 251.966 100.248 241.485C102.318 238.864 104.647 236.506 106.716 233.624C108.528 231.527 109.821 228.907 110.08 226.025C110.339 222.618 109.304 219.212 108.269 216.067C107.234 212.661 106.458 209.254 105.423 205.848C103.353 197.987 101.024 190.388 98.9546 182.527C97.9197 183.051 96.8848 183.313 95.8499 183.837C106.716 202.965 114.996 223.666 120.17 245.415C121.205 245.153 122.24 244.891 123.275 244.629C116.807 224.452 110.08 204.276 103.612 183.837C102.836 184.361 102.059 184.885 101.283 185.671C116.548 196.939 120.17 216.329 125.604 233.361C127.156 238.34 128.967 243.319 131.037 248.036C131.813 249.608 134.142 248.56 133.624 246.987C129.743 236.506 123.792 226.811 116.548 218.426C115.772 217.639 114.22 218.163 114.22 219.474C116.031 238.864 117.842 258.517 119.653 277.908C119.653 279.218 121.464 280.004 122.24 278.694C127.156 268.474 129.743 257.469 129.484 245.939C129.484 244.367 127.156 244.105 126.897 245.677C123.275 256.945 118.101 267.688 111.632 277.384C110.08 279.742 108.528 282.362 106.716 284.721C105.682 286.293 103.094 290.485 100.766 288.651C98.9547 287.341 99.4721 283.934 99.4721 282.1C99.4721 278.956 99.7309 275.811 99.9896 272.405C100.766 265.33 102.318 258.255 104.388 251.442C103.353 251.442 102.577 251.18 101.542 251.18C101.024 266.902 96.3674 282.362 87.8294 295.464C88.8643 295.726 89.6404 295.988 90.6753 296.25C89.8992 282.624 90.9341 268.998 94.5562 255.897C93.5213 255.635 92.4864 255.373 91.4515 255.111C89.3817 268.474 85.7595 281.576 80.585 294.154C81.6199 294.416 82.6548 294.678 83.6897 294.94C86.0183 280.004 90.158 265.33 96.1087 251.18C95.0738 250.918 94.0389 250.656 93.0039 250.394C86.7945 267.164 77.9977 282.886 66.8725 296.774C67.6486 297.56 68.6836 298.084 69.4597 298.87C74.1168 288.389 78.7739 277.646 83.431 267.164C84.2072 265.33 81.6199 263.758 80.585 265.592C74.1168 278.17 64.0264 288.913 52.125 296.512C52.9012 297.036 53.6773 297.822 54.4535 298.346C56.0059 293.368 57.817 288.651 59.3694 283.672C59.8868 282.1 57.817 281.052 56.7821 282.1C50.3139 288.389 45.398 295.988 42.8108 304.635C42.2933 306.469 44.8806 307.518 45.6568 305.945C52.6424 293.892 56.2646 280.266 56.2646 266.378C56.2646 265.068 54.4535 264.282 53.6774 265.33C47.7266 271.881 44.6219 281.052 45.6568 289.961C46.1742 293.63 47.2092 297.56 50.0552 299.919C53.6774 302.539 57.817 300.443 61.1804 298.084C65.3201 295.202 68.6836 291.271 71.0121 286.817C71.7883 285.245 70.2359 283.934 68.6835 284.458C64.5439 286.293 60.9217 289.437 58.3344 293.368C56.2646 296.512 53.4186 302.801 57.817 305.421C59.6281 306.469 61.9566 306.47 64.0264 306.47C66.8724 306.207 69.9772 305.683 72.8232 305.421C78.7739 304.635 84.4659 303.587 90.4167 302.277C96.8849 300.705 103.612 299.133 110.08 297.036C111.891 296.512 111.373 293.892 109.562 293.892C92.4864 292.582 75.4104 295.726 59.6281 302.539C58.5931 303.063 58.5931 304.897 59.6281 305.421C76.9628 315.379 97.6611 312.496 115.513 306.207C120.947 304.373 126.38 302.015 131.813 299.919C133.624 299.133 133.107 296.25 131.037 296.774C107.493 301.229 83.6897 304.635 59.6281 307.256C57.817 307.518 57.0408 310.138 59.1106 310.662C82.6548 316.165 108.269 311.972 128.708 298.87C134.4 295.202 139.316 291.009 144.232 286.293C143.197 285.769 142.162 285.507 141.127 284.983C140.868 291.009 136.729 295.988 131.296 298.084C128.967 298.87 129.743 302.277 132.331 302.015C141.386 300.443 147.595 292.32 149.148 283.672C150.959 272.405 145.267 261.661 139.575 252.49C138.281 250.394 135.435 251.704 135.953 254.062C138.022 263.758 138.54 273.715 138.022 283.934C139.316 283.672 140.61 283.672 141.903 283.41C140.868 279.218 137.246 276.335 133.365 275.287C128.708 273.977 123.793 275.025 119.394 276.859C114.22 278.956 109.304 281.576 104.129 284.196C98.6959 286.817 93.2627 289.437 87.8294 292.32C85.7596 293.368 87.3119 296.25 89.3817 295.988C105.423 293.106 121.723 290.485 137.764 287.603C137.505 286.293 136.988 284.983 136.729 283.934C125.862 288.389 114.737 293.106 103.871 297.56C102.059 298.346 102.059 300.705 103.871 301.491C111.891 304.635 121.205 301.753 127.415 295.988C134.142 289.437 136.729 280.004 138.022 270.833C138.281 268.998 135.177 268.212 134.4 269.785C131.037 277.122 127.673 284.196 124.31 291.533C125.604 291.795 126.639 292.058 127.932 292.582C128.708 281.314 129.743 270.309 130.519 259.041C130.778 256.683 127.156 256.683 126.897 259.041C126.121 267.688 124.569 276.335 122.499 284.983C123.792 285.245 124.827 285.245 126.121 285.507C125.604 275.811 125.345 266.378 124.827 256.683C124.827 254.586 121.723 254.062 121.205 256.159C119.394 264.282 117.583 272.405 115.513 280.79C116.548 280.528 117.583 280.266 118.618 280.004C113.702 275.025 109.304 269.26 105.681 263.234C104.647 261.399 102.318 262.448 102.059 264.282C101.283 271.095 100.766 278.17 99.9896 284.983C101.283 284.721 102.318 284.459 103.612 283.934C99.4721 277.646 96.1086 270.833 94.0388 263.758C93.2626 261.399 89.8992 262.447 90.4167 264.806C92.2278 271.881 95.0737 278.694 99.2133 284.721C100.248 284.196 101.283 283.41 102.318 282.886C93.5213 270.047 82.9135 254.062 88.3468 237.816C87.3119 238.078 86.277 238.078 85.2421 238.34C91.969 253.8 98.696 269.522 105.164 284.983C106.199 284.458 106.975 283.934 108.01 283.148C101.801 268.474 95.3325 253.8 89.123 239.126C88.3469 237.292 85.7595 238.602 86.0183 240.436C88.0881 252.752 90.4166 265.068 92.4865 277.121C93.5214 276.597 94.5563 276.335 95.5912 275.811C89.6405 262.447 84.7246 248.822 80.585 234.934C80.0675 233.099 77.2216 233.362 77.2216 235.458C79.0326 251.18 82.6549 266.64 87.8294 281.838C88.8643 281.314 89.8992 281.052 90.9341 280.528C85.7595 271.619 81.3612 262.448 77.9977 252.752C77.2215 250.656 74.1168 251.442 74.6343 253.538C77.4803 262.71 79.5501 271.881 81.1025 281.052C82.1374 280.528 83.1722 280.266 84.2071 279.742C80.585 274.501 76.9628 269.26 73.3406 264.02C72.047 262.185 69.9772 263.496 70.2359 265.33C71.0121 270.833 71.7882 276.335 72.5644 282.1C73.5993 281.576 74.6343 281.052 75.4104 280.266C72.047 275.811 68.4248 271.357 65.0613 267.164C64.0264 265.854 61.9566 266.902 62.2153 268.474C62.7328 275.549 64.8026 282.1 68.1661 288.127C68.9423 287.341 69.9772 286.817 70.7534 286.031C65.5788 280.266 61.4392 274.239 57.817 267.426C57.0408 265.854 54.1948 266.902 54.7122 268.736C56.7821 274.763 59.1106 281.052 61.1804 287.079C61.9566 286.555 62.7328 285.769 63.509 285.245C60.4042 283.148 57.2996 281.314 54.1948 279.218C53.1599 278.694 51.6076 279.48 51.6076 280.79C52.125 286.817 53.4186 292.844 55.7471 298.608C56.5233 298.084 57.2996 297.298 58.0758 296.774C55.4885 294.94 52.6425 293.106 50.0552 291.533C48.7615 290.747 47.2092 292.058 47.7267 293.368C49.0203 298.084 50.8314 302.277 53.6774 306.207C54.4535 305.421 55.4884 304.897 56.2646 304.111C53.9361 301.491 51.6075 298.608 49.5377 295.988C48.5028 294.678 46.433 295.988 46.6917 297.56C47.4679 300.967 48.2441 304.635 49.0203 308.042C49.7965 307.256 50.3139 306.732 51.0901 305.945C49.0203 305.159 46.9504 303.849 45.398 302.277C44.6219 303.063 43.8457 303.849 42.8108 304.897C50.0551 311.71 60.9217 304.373 67.6486 300.705C77.9977 294.94 88.3468 288.913 98.4372 283.148C99.4721 282.624 99.7309 281.052 98.696 280.266C95.85 277.384 90.6754 277.383 87.8294 280.528C87.0532 281.576 87.3119 283.41 88.6055 283.672C101.024 286.555 113.961 285.769 125.862 281.314C125.345 280.266 124.827 278.956 124.569 277.908C119.394 280.528 114.22 282.886 109.045 285.507C108.269 285.769 107.751 287.341 108.528 288.127C111.891 292.844 118.359 292.844 122.758 290.223C128.45 286.817 130.002 279.48 130.778 273.453C129.743 273.191 128.45 273.191 127.415 272.929C127.415 275.811 127.156 278.694 127.156 281.576C127.156 283.672 130.002 283.934 130.519 282.1C132.331 273.977 134.4 265.854 136.211 257.731C135.177 257.993 134.142 257.993 133.107 258.255C134.659 260.875 135.953 263.234 137.505 265.854C138.281 267.164 140.61 266.64 140.61 265.068C140.351 258.779 138.022 253.014 134.142 248.298C133.365 247.249 131.813 248.035 131.296 249.084C128.708 257.207 124.051 264.282 118.101 270.309C119.135 270.571 119.912 270.833 120.946 271.095C115.772 252.49 122.757 232.575 116.031 214.495C115.513 213.185 114.22 212.661 113.185 213.709C107.751 219.212 103.612 225.762 101.024 233.361C102.059 233.624 103.353 233.624 104.388 233.886C104.129 222.88 101.542 212.137 96.626 202.441C95.8498 200.869 93.5214 201.655 93.5214 203.227C93.5214 213.447 94.2975 223.404 95.8499 233.624C96.8848 233.362 97.9197 233.099 99.2133 232.575C94.2975 216.329 90.1579 199.821 86.5358 183.313C85.2421 183.575 83.9484 184.099 82.9135 184.361C86.5357 199.035 90.4167 213.971 94.2976 228.645C94.815 231.003 98.6959 229.955 97.9197 227.597C94.0388 212.923 90.4167 197.987 86.5358 183.313C86.0183 180.954 82.3961 182.003 82.9135 184.361C86.5357 200.869 90.9342 217.377 96.1087 233.624C96.8849 235.72 99.7309 234.934 99.4721 232.575C98.1785 222.88 97.4023 212.923 97.4023 203.227C96.3674 203.489 95.3325 203.752 94.2976 204.014C98.6959 213.185 101.283 223.404 101.542 233.886C101.542 235.982 104.388 236.244 104.905 234.41C107.234 227.597 111.115 221.308 116.289 216.329C115.254 216.067 114.478 215.805 113.443 215.543C120.17 233.886 113.185 253.8 118.359 272.143C118.618 273.453 120.17 273.715 121.205 272.929C127.415 266.64 132.33 258.779 135.176 250.132C134.142 250.394 133.365 250.656 132.331 250.918C135.435 255.11 137.505 260.089 137.764 265.33C138.799 265.068 139.834 264.806 140.869 264.544C139.316 261.923 138.022 259.565 136.47 256.945C135.694 255.635 133.883 255.897 133.365 257.469C131.296 265.592 129.484 273.715 127.415 281.576C128.45 281.838 129.743 281.838 130.778 282.1C131.037 279.218 131.037 276.335 131.296 273.453C131.296 271.357 128.191 270.833 127.932 272.929C127.156 277.646 126.638 283.672 122.499 286.817C119.911 288.913 114.478 289.961 112.15 286.817C111.891 287.603 111.632 288.389 111.632 289.437C116.807 286.817 121.981 284.458 127.415 281.838C129.226 281.052 127.932 277.646 126.121 278.432C114.996 282.886 102.577 283.672 90.9341 280.79C91.1928 281.838 91.4516 282.886 91.7103 283.934C93.2627 282.362 95.85 282.1 97.4023 283.672C97.4023 282.624 97.661 281.838 97.661 280.79C88.3468 286.031 79.0326 291.271 69.4597 296.774C65.3201 299.132 61.1805 301.753 56.7821 303.587C53.4187 304.897 49.0203 306.207 45.9155 303.325C44.3632 301.753 41.7759 304.111 43.3283 305.945C45.3981 308.042 47.9853 309.614 50.5726 310.4C51.8662 310.924 52.9012 309.352 52.6425 308.304C51.8663 304.897 51.0901 301.229 50.3139 297.822C49.279 298.346 48.5028 298.87 47.4679 299.395C49.7965 302.015 52.125 304.897 54.1948 307.518C55.4885 309.09 57.817 306.994 56.7821 305.421C54.1948 301.753 52.3837 297.822 51.0901 293.368C50.3139 293.892 49.5377 294.678 48.7615 295.202C51.3488 297.036 54.1948 298.87 56.7821 300.443C57.817 301.229 59.8868 299.919 59.1106 298.608C57.0408 293.106 55.7472 287.603 55.2297 281.576C54.4536 282.1 53.6774 282.624 52.6425 283.148C55.7472 285.245 58.8519 287.079 61.9567 289.175C63.2503 289.961 64.8026 288.651 64.2852 287.341C62.2154 281.314 59.8868 275.025 57.817 268.998C56.7821 269.522 55.7472 269.784 54.7122 270.309C58.3344 277.384 62.9916 283.672 68.1661 289.699C69.4597 291.271 71.7883 289.175 70.7534 287.603C67.6486 282.1 65.8375 276.073 65.3201 269.785C64.2852 270.309 63.2502 270.571 62.4741 271.095C65.8375 275.549 69.4597 280.004 72.8232 284.458C74.1168 286.031 75.9279 284.196 75.6692 282.624C74.893 277.122 74.1168 271.619 73.3406 265.854C72.3057 266.378 71.2708 266.64 70.2359 267.164C73.8581 272.405 77.4803 277.646 81.1025 282.886C82.1374 284.459 84.7246 283.41 84.2071 281.576C82.6548 272.143 80.3262 262.972 77.739 254.062C76.7041 254.324 75.6692 254.586 74.3755 254.848C77.739 264.806 82.1374 274.501 87.5707 283.41C88.6056 284.983 91.1928 283.934 90.6753 282.1C85.5008 267.426 81.8787 252.228 80.0676 236.768C79.0327 237.03 77.9977 237.03 76.7041 237.292C80.8437 251.442 86.0182 265.592 91.969 278.956C92.7452 280.79 95.3325 279.48 95.0737 277.646C93.0039 265.33 90.9341 253.014 88.6055 240.961C87.5706 241.485 86.5357 241.747 85.5008 242.271C91.7102 256.945 98.1784 271.619 104.388 286.293C105.164 288.389 108.269 286.555 107.234 284.458C100.507 268.998 93.7801 253.276 87.3119 237.816C86.7945 236.244 84.7246 237.03 84.2071 238.34C78.5151 255.373 89.123 272.405 98.4372 286.031C99.7308 287.865 102.836 286.293 101.542 284.196C97.661 278.17 94.815 271.881 93.2626 265.068C91.969 265.33 90.9341 265.854 89.6404 266.116C91.969 273.453 95.3324 280.79 99.7308 287.079C100.766 288.651 103.094 287.865 103.353 286.031C104.129 279.218 104.647 272.143 105.423 265.33C104.129 265.592 103.094 266.116 101.801 266.378C105.423 272.667 110.08 278.694 115.254 283.934C116.289 284.983 118.1 284.458 118.359 283.148C120.17 275.025 121.981 266.902 123.792 258.517C122.499 258.255 121.205 258.255 120.17 257.993C120.688 267.688 121.205 277.122 121.464 286.817C121.464 288.913 124.569 289.437 125.086 287.341C127.156 278.432 128.708 269.522 129.484 260.351C128.191 260.351 127.156 260.351 125.862 260.351C125.086 271.619 124.051 282.624 123.016 293.892C122.758 295.726 125.604 296.512 126.639 294.94C130.002 287.865 133.365 280.528 136.729 273.453C135.435 273.191 134.4 272.667 133.107 272.405C132.072 280.266 129.743 288.651 124.051 294.416C118.877 299.657 110.856 302.015 103.871 299.395C103.871 300.705 103.871 302.015 103.871 303.325C114.737 298.87 125.862 294.154 136.729 289.699C139.057 288.651 138.281 285.507 135.694 286.031C119.653 288.913 103.353 291.533 87.3119 294.416C87.8294 295.726 88.3468 296.774 88.8643 298.084C98.1785 293.63 107.234 288.913 116.548 284.458C120.429 282.624 125.086 280.528 129.484 281.314C132.589 281.838 136.211 283.672 136.988 287.079C137.505 289.437 140.61 288.651 140.869 286.555C141.645 276.335 140.869 265.854 138.799 255.635C137.505 256.159 136.47 256.683 135.176 257.207C140.092 265.33 145.526 275.025 144.232 284.721C143.197 292.32 137.764 299.395 130.261 300.705C130.519 302.015 131.037 303.325 131.296 304.635C138.281 302.015 143.714 295.464 143.714 287.865C143.714 286.293 141.645 285.507 140.61 286.555C124.827 303.325 101.024 311.972 78.5152 312.234C72.047 312.234 65.3201 311.71 58.8519 310.138C58.5932 311.186 58.5931 312.496 58.3344 313.544C82.3961 310.662 106.716 307.256 130.519 302.801C130.261 301.753 130.002 300.705 129.743 299.657C108.269 308.304 82.1373 317.737 59.8868 305.421C59.8868 306.469 59.8868 307.256 59.8868 308.304C74.893 301.491 91.7103 298.608 108.01 299.919C107.751 298.87 107.751 297.822 107.493 296.774C95.0737 300.443 82.3961 303.325 69.4597 305.159C66.6137 305.683 63.509 306.207 60.663 306.207C59.6281 306.207 58.3345 306.207 57.817 305.159C57.2996 304.111 58.0757 302.277 58.5932 301.229C60.663 296.512 64.5439 292.844 69.201 290.485C68.4248 289.699 67.6486 288.913 66.8725 288.127C64.5439 292.32 61.4392 295.988 57.5583 298.87C56.0059 299.919 53.6774 301.753 51.6076 300.967C49.7965 300.443 48.7615 298.346 47.9853 296.774C46.6917 292.582 46.9504 287.603 47.9853 283.41C49.0202 278.694 51.3488 274.501 54.4535 270.833C53.6773 270.571 52.6424 270.047 51.8662 269.785C52.125 283.148 48.5028 296.25 41.7759 307.78C42.8108 308.304 43.587 308.566 44.6219 309.09C47.2092 300.967 51.6075 293.63 57.817 287.865C57.0408 287.341 56.0059 286.817 55.2297 286.293C53.6774 291.271 51.8663 295.988 50.3139 300.967C49.7965 302.277 51.6076 303.587 52.6425 302.801C65.0614 294.94 75.4104 283.934 82.1374 270.833C81.1025 270.309 80.3263 269.784 79.2913 269.26C74.6343 279.742 69.9772 290.485 65.0613 300.967C64.2852 302.539 66.355 304.635 67.6486 303.063C79.2913 288.651 88.3469 272.667 94.8151 255.373C95.5912 253.276 92.4865 252.49 91.7103 254.586C86.0183 268.736 81.8786 283.41 79.5501 298.346C79.2914 300.443 81.8787 301.229 82.6549 299.132C87.8294 286.555 91.4516 273.453 93.5214 260.089C93.7802 258.255 90.9341 257.207 90.4167 259.303C87.0532 272.667 85.7596 286.817 86.5358 300.443C86.5358 302.015 88.6055 302.539 89.3817 301.229C97.9197 287.603 102.836 271.619 103.353 255.373C103.353 253.8 101.024 253.538 100.507 255.111C98.4371 261.923 96.8849 268.998 96.1087 276.073C95.5912 279.742 95.5911 283.41 95.3324 286.817C95.3324 289.175 95.3325 292.058 96.8849 293.892C98.4372 295.726 101.024 296.25 103.094 294.94C105.681 293.63 107.493 290.485 109.045 288.127C112.926 282.624 116.289 276.859 119.394 270.833C122.758 264.02 125.862 257.207 128.191 249.87C127.415 249.87 126.38 249.608 125.604 249.608C125.604 260.351 123.275 271.095 118.618 280.79C119.394 281.052 120.429 281.314 121.205 281.576C119.394 262.185 117.583 242.533 115.772 223.142C114.996 223.404 114.219 223.666 113.443 224.19C120.429 232.313 126.121 241.485 129.484 251.704C130.261 251.442 131.296 250.918 132.072 250.656C124.569 233.624 123.016 213.709 112.15 198.249C109.045 193.794 105.423 190.126 101.283 186.981C100.248 186.195 98.6959 187.505 98.9546 188.815C105.423 208.992 111.891 229.431 118.618 249.608C119.135 251.704 122.24 250.918 121.723 248.822C116.548 227.073 108.269 206.11 97.1435 186.457C96.1086 184.623 93.5213 185.933 94.0388 187.767C95.8498 194.318 97.661 200.869 99.4721 207.42C100.507 210.826 101.283 213.971 102.318 217.377C103.094 220.522 104.388 223.666 104.905 226.811C105.682 230.217 104.647 232.837 102.577 235.458C100.766 238.078 98.6959 240.174 96.626 242.533C92.4864 247.511 88.0881 252.49 83.6897 257.207C78.7739 262.71 73.5994 268.212 68.4248 273.715C69.201 274.239 69.9772 274.763 71.0121 275.287C76.9628 257.993 87.3118 242.533 100.507 229.955C101.801 228.645 99.7308 226.549 98.4372 227.859C91.1928 234.672 82.9135 240.436 74.3755 245.153C72.8232 245.939 73.8581 248.298 75.4104 247.773C90.9341 244.105 105.164 234.41 113.702 220.784C114.478 219.474 112.926 217.639 111.632 218.688C96.1087 230.479 80.8437 242.271 65.5788 254.062C64.0265 255.111 65.3201 257.469 67.1312 256.683C76.4454 252.228 85.5009 247.774 94.8151 243.581C99.2134 241.485 103.87 239.126 108.269 237.292C112.667 235.196 117.583 233.362 122.499 234.41C122.499 233.624 122.24 232.575 122.24 231.789C100.507 244.105 79.8088 258.255 60.1455 273.977C59.1106 274.763 60.1455 276.859 61.4392 276.335C80.3263 270.571 93.78 255.373 110.856 245.939C115.772 243.319 120.946 241.223 126.121 239.912C128.45 235.196 128.191 233.886 127.156 234.148Z" fill="#FFD300"/>
<path d="M37.8953 43.3852C46.9508 66.4443 53.1603 90.2896 58.5935 114.397C60.1459 121.21 61.1808 128.023 62.7332 134.836C63.2506 136.67 66.3553 136.408 66.0966 134.312C64.803 121.996 62.2158 109.68 59.3698 97.6266C56.265 85.573 52.3841 73.7813 47.9857 61.9897C45.3984 55.4388 42.8112 48.888 39.9652 42.5991C39.4478 41.2889 37.3779 42.075 37.8953 43.3852Z" fill="#FFD300"/>
<path d="M66.0966 143.745C66.0966 145.317 65.8379 146.889 65.8379 148.462C65.8379 149.248 66.3553 149.772 67.1315 149.772C67.9077 149.772 68.4252 149.248 68.4252 148.462C68.4252 146.889 68.1664 145.317 68.1664 143.745C68.1664 143.221 67.649 142.697 67.1315 142.697C66.6141 142.959 66.0966 143.221 66.0966 143.745Z" fill="#FFD300"/>
<path d="M76.9631 125.664C77.4806 127.76 77.998 129.857 78.7742 131.953C79.033 132.477 79.5504 133.001 80.0679 132.739C80.5853 132.477 81.1027 131.953 80.844 131.429C80.3266 129.333 79.5503 127.236 79.0329 125.14C78.7742 124.616 78.2567 124.092 77.7393 124.354C77.2218 124.616 76.7044 125.14 76.9631 125.664Z" fill="#FFD300"/>
<path d="M90.1585 143.745C91.1934 143.745 91.1934 142.172 90.1585 142.172C89.1236 142.172 89.1236 143.745 90.1585 143.745Z" fill="#FFD300"/>
<path d="M146.819 213.97C157.427 231.002 169.07 248.558 170.881 269.259C171.399 275.024 171.14 280.527 169.587 286.292C169.07 288.388 172.433 289.436 172.951 287.34C178.643 266.639 170.105 245.676 158.721 228.382C155.357 223.403 151.994 218.424 148.372 213.446C147.854 212.135 146.302 212.921 146.819 213.97Z" fill="#FFD300"/>
</svg>
