<svg width="203" height="340" viewBox="0 0 203 340" fill="none" xmlns="http://www.w3.org/2000/svg">
<path d="M201.451 195.436C201.451 194.165 201.03 193.317 200.608 192.469C200.187 191.621 200.187 190.773 199.766 189.925C199.766 189.501 199.766 189.501 199.766 189.077C200.187 188.653 200.608 188.229 200.187 187.382C200.608 186.958 201.03 186.11 200.608 185.686C200.608 185.262 200.608 185.262 200.608 184.838V184.414C200.608 183.566 200.608 182.718 200.608 181.87C200.608 180.175 200.608 178.055 200.187 176.359C200.187 175.935 199.766 175.511 199.344 175.087C198.923 174.663 198.501 174.663 197.658 174.663L177.429 179.751V12.7182C177.429 12.7182 177.85 12.7182 177.85 12.2943C179.536 11.4464 181.222 10.1746 181.643 8.0549C182.486 5.9352 181.643 3.81546 179.958 2.1197C178.693 0.84788 176.586 0.423966 174.479 0.423966C172.793 0.423966 170.686 0.423966 169 0.423966C169 0.423966 119.269 0 118.848 0C115.476 0 112.526 1.27182 110.84 4.2394C109.155 6.78304 109.155 10.1746 111.262 12.2943C112.526 13.5661 114.212 13.9901 115.476 14.414V65.7107C107.047 66.5586 98.197 67.8304 90.1895 69.9501C77.5461 73.3416 65.3242 78.8529 54.3666 86.4838C35.4015 99.626 21.0723 117.431 12.2219 138.628C4.21447 157.706 0.421446 178.479 0 199.252C0 220.025 3.79302 241.646 13.4863 259.875C18.1222 268.778 24.4439 276.833 32.0299 283.192C40.4589 290.399 50.995 296.334 61.5312 299.726C60.2668 306.085 58.581 312.444 57.7381 318.803H55.6309V340H196.394V319.227H189.229H180.8C180.8 314.988 180.379 302.693 180.379 302.693H119.691C119.691 303.117 119.691 303.117 119.691 303.541V303.965V317.955C119.691 318.379 119.691 318.803 120.112 319.227H104.097V261.147H120.534V274.289C120.112 275.561 120.534 277.257 122.219 277.257H181.643C182.908 277.257 183.329 276.409 183.751 275.561C184.172 275.137 184.172 274.713 184.172 274.289V261.147H195.973C196.394 261.147 196.815 261.147 197.237 260.723C198.08 260.299 198.501 259.875 198.501 259.027V253.516C199.344 252.244 198.923 250.549 197.237 250.125C196.815 250.125 196.815 250.125 196.394 250.125C195.973 250.125 195.973 250.125 195.551 250.125H194.287V249.701V249.277C194.287 249.277 194.287 248.853 194.287 248.429C194.287 248.005 194.287 248.005 194.287 247.581C194.287 246.309 193.865 245.037 193.865 243.766C193.865 243.342 193.022 242.494 192.601 242.494C191.337 242.494 190.072 242.494 188.808 242.494C188.387 242.494 188.387 242.494 187.965 242.494C187.544 242.494 187.122 242.494 186.701 242.494C186.701 242.494 186.701 242.494 186.279 242.494H185.858C185.436 242.494 185.436 242.494 185.015 242.494C183.751 242.494 182.908 243.342 182.908 244.613C182.908 245.037 182.908 245.037 182.908 245.461V245.885C182.908 246.733 182.486 247.157 182.486 248.005C182.486 248.429 182.486 249.277 182.486 249.701H115.898V249.277V248.853C115.898 248.853 115.898 248.429 115.898 248.005C115.898 247.581 115.898 247.581 115.898 247.157C115.898 245.885 115.476 244.613 115.476 243.342C115.476 242.918 114.633 242.07 114.212 242.07C112.948 242.07 111.683 242.07 110.419 242.07C109.997 242.07 109.997 242.07 109.576 242.07C109.155 242.07 108.733 242.07 108.312 242.07C108.312 242.07 108.312 242.07 107.89 242.07H107.469C107.047 242.07 107.047 242.07 106.626 242.07C105.362 242.07 104.519 242.918 104.519 244.19C104.519 244.613 104.519 244.614 104.519 245.037V245.461C104.519 246.309 104.097 246.733 104.097 247.581C104.097 248.005 104.097 248.853 104.097 249.277H101.99C99.8828 247.157 95.6683 246.733 92.7182 246.733C87.6608 247.157 82.6035 248.429 78.8105 251.82C74.596 255.636 72.4888 261.571 71.2244 267.082C70.803 268.354 70.3815 269.626 70.3815 270.898C63.6384 263.691 59.0025 254.788 56.4738 245.037C52.6808 231.895 51.4165 218.329 52.2593 205.187C53.1022 192.045 56.4738 178.479 63.2169 167.032C69.9601 155.586 79.6534 146.683 92.2968 142.444C100.304 139.476 108.733 138.205 117.162 138.628V181.446C117.162 181.87 117.584 182.294 117.584 182.718C117.584 182.718 118.005 183.142 118.426 183.142C119.269 184.414 120.534 186.11 121.377 187.382C122.641 189.077 124.327 190.773 126.434 192.045C126.855 192.469 127.277 192.469 127.698 192.469L103.254 198.828C102.833 198.828 102.411 199.252 101.99 199.676C101.569 200.1 101.147 200.948 101.147 201.796C101.99 203.491 102.833 205.611 103.676 207.731C104.097 208.579 104.519 209.426 104.94 210.274C105.362 210.698 105.362 211.546 105.783 211.97C106.204 212.394 106.626 212.394 107.047 212.818C107.047 213.242 107.469 213.242 107.469 213.666V214.09C107.89 214.938 107.89 215.786 108.312 216.633C108.733 217.905 109.155 219.177 109.997 220.449C109.997 220.873 110.419 221.297 111.262 221.721C111.683 221.721 112.105 222.145 112.526 222.145C112.948 222.145 113.791 221.721 113.791 221.721L114.633 221.297C115.055 221.297 115.476 221.297 115.898 220.873L120.534 238.678C120.955 240.374 122.641 240.374 123.905 239.526C124.327 239.526 124.327 239.526 124.748 239.526L144.978 234.439C146.242 234.015 146.663 232.743 146.242 231.895C146.663 231.471 147.085 230.623 146.663 230.2L142.449 214.09L144.556 213.666L147.928 227.656C148.349 228.928 149.613 228.928 150.456 228.504C150.878 228.504 150.878 228.504 151.299 228.504L166.471 224.688C167.314 224.264 167.736 223.416 167.314 222.569C167.736 222.145 167.736 221.721 167.736 221.297L164.364 209.003L166.893 208.155L171.529 225.96C171.95 227.656 173.636 227.656 174.9 226.808C175.322 226.808 175.322 226.808 175.743 226.808L195.973 221.721C197.237 221.297 197.658 220.025 197.237 219.177C197.658 218.753 198.08 217.905 197.658 217.481L193.444 201.372L200.187 199.676C202.716 198.828 202.716 196.284 201.451 195.436ZM116.319 10.1746C114.212 9.75066 114.212 7.63092 115.055 6.3591C117.584 3.39152 123.484 4.66337 126.855 4.66337C132.756 4.66337 138.656 4.66337 144.556 4.66337C150.456 4.66337 156.357 4.66337 162.678 4.66337C165.628 4.66337 168.579 4.66337 171.529 4.66337C173.214 4.66337 181.222 4.23944 177.85 8.0549C176.586 9.75066 173.636 9.32673 171.95 9.32673C169 9.32673 165.628 9.32673 162.678 9.32673C156.778 9.32673 150.878 9.32673 144.556 9.32673C139.499 9.32673 134.02 9.32673 128.963 9.32673C126.855 9.32673 124.748 9.32673 122.641 9.32673C120.534 9.75067 118.005 10.5985 116.319 10.1746ZM123.484 304.813H177.85V316.259H123.484V304.813ZM194.287 322.618V336.185H61.1097V322.618H194.287ZM179.958 273.017H124.327V261.147H179.958V273.017ZM194.708 256.908H104.097V253.94H194.708V256.908ZM187.122 249.701C187.122 249.277 187.122 249.277 187.122 249.701C186.701 249.277 187.122 249.277 187.122 249.701C186.701 249.277 186.701 249.277 187.122 249.701C187.122 249.277 187.122 249.277 186.701 249.277V248.853C186.701 248.429 186.701 248.429 186.701 248.005C186.701 247.581 186.701 247.581 186.701 247.157C186.701 248.005 186.701 247.157 186.701 246.733C186.701 246.733 186.701 246.733 186.701 246.309C187.122 246.309 187.544 246.309 187.965 246.309H188.387C188.808 246.309 189.651 246.309 190.072 246.309C190.072 246.309 190.072 246.309 190.494 246.309C190.494 246.733 190.494 247.157 190.494 248.005C190.494 248.853 190.494 249.277 190.915 250.125L187.122 249.701ZM107.89 249.701C107.89 249.277 107.89 249.277 107.89 249.701C107.89 249.277 107.89 249.277 107.469 249.277V248.853C107.469 248.429 107.469 248.429 107.469 248.005C107.469 247.581 107.469 247.581 107.469 247.157C107.469 248.005 107.469 247.157 107.469 246.733C107.469 246.733 107.469 246.733 107.469 246.309C107.89 246.309 108.312 246.309 108.733 246.309H109.155C109.576 246.309 110.419 246.309 110.84 246.309C110.84 246.309 110.84 246.309 111.262 246.309C111.262 246.733 111.262 247.157 111.262 248.005C111.262 248.853 111.262 249.277 111.683 250.125L107.89 249.701ZM72.0673 279.376C72.4888 278.105 72.9102 276.833 73.3317 275.137C73.3317 275.137 73.3317 275.137 72.9102 275.137C74.1746 270.05 75.0174 264.539 77.5461 259.875C79.6534 255.636 83.4464 253.516 88.0823 252.244C91.0324 251.82 98.197 250.125 99.0399 254.364C99.0399 254.788 99.0399 254.788 99.4613 255.212V258.603C99.4613 259.027 99.4613 259.451 99.4613 259.875V318.803H62.7955C64.0598 312.868 65.3242 306.509 66.5885 300.573C67.01 299.302 67.4314 298.03 67.4314 296.758C67.4314 296.758 67.4314 296.758 67.01 296.758C69.5387 290.823 70.803 284.888 72.0673 279.376ZM94.8254 137.357C81.3391 141.172 69.9601 149.227 61.9526 160.673C45.9377 183.99 44.2519 215.362 50.995 242.07C53.1022 249.701 55.6309 257.756 59.8454 264.539C62.3741 268.778 65.3242 272.594 68.6958 275.985C67.4314 281.072 66.1671 286.584 64.9027 291.671C64.4813 292.943 64.4813 294.214 64.0598 295.486C56.0524 292.943 48.4663 289.127 41.7232 284.464C33.2943 278.529 26.5511 271.322 21.0723 262.843C10.5362 245.885 5.90025 225.536 5.05736 205.611C4.21447 186.11 7.16459 166.185 13.4863 147.531C21.0723 126.758 33.2943 108.105 50.5736 94.5387C60.2668 86.9077 71.2244 80.5486 82.6035 76.3092C93.1396 72.4938 104.519 70.3741 115.898 69.5262V134.813C109.155 134.813 101.99 135.661 94.8254 137.357ZM120.534 179.751V13.5661H172.793C173.214 13.5661 173.214 13.5661 173.636 13.5661V181.022L170.686 181.87C170.686 181.022 170.264 179.751 168.579 179.751H120.534ZM126.434 187.806C126.012 187.382 126.012 187.382 126.012 187.382C125.17 186.534 124.327 185.686 123.905 184.838C123.484 184.414 123.062 183.99 123.062 183.566H163.1L136.97 190.349H136.549C136.127 190.349 135.284 190.349 134.863 190.349C134.441 190.349 134.441 190.349 134.02 190.349H133.599H133.177C132.334 190.349 131.07 189.925 130.227 189.501C129.805 189.501 129.805 189.077 129.384 189.077C129.384 189.077 129.384 189.077 128.963 189.077C128.541 189.077 128.541 189.077 128.12 188.653C127.698 188.653 127.277 188.229 126.434 187.806ZM142.87 231.047L125.17 235.711C124.327 234.863 123.905 233.591 123.484 232.319C123.062 230.623 122.641 229.352 122.219 227.656C121.798 225.112 121.377 222.145 120.534 219.601L138.234 214.938L142.87 231.047ZM165.207 221.297L150.878 225.112L147.928 212.818L162.257 209.003L165.207 221.297ZM194.287 217.905L175.322 222.569L171.107 206.459L190.072 201.796L194.287 217.905ZM115.898 216.633C115.898 216.209 115.898 216.209 115.898 216.209V215.785C115.898 215.362 115.476 214.938 115.476 214.514C115.055 213.666 115.055 212.394 114.633 211.546H115.055L194.287 191.197C194.708 192.893 195.13 194.588 195.551 196.708L115.898 216.633ZM109.155 208.579C108.312 206.459 107.469 204.339 106.204 202.219L137.391 194.165C138.234 194.165 139.077 193.741 140.342 193.741C140.763 193.741 140.763 193.741 141.185 193.317L196.815 178.903C196.815 179.751 196.815 180.599 196.815 181.446C196.815 182.718 196.815 183.99 196.815 185.262L109.155 208.579Z" fill="#FFD300"/>
<path d="M85.9751 85.6371C85.5537 85.6371 85.5537 85.6371 85.5537 85.6371C72.0674 85.2132 60.2669 101.323 66.1672 114.041C69.9602 121.672 79.6534 124.216 87.2395 122.944C95.247 121.248 103.254 115.313 104.94 106.834C105.783 101.747 104.519 95.8117 101.147 91.9962C97.7756 87.7568 91.8754 85.6371 85.9751 85.6371ZM101.147 104.714C100.726 111.497 94.8255 117.009 88.5038 118.704C82.6036 120.4 74.1746 119.552 70.3816 114.041C67.4315 109.378 68.6958 103.019 71.2245 98.3553C74.5961 92.8441 80.9178 88.6046 87.2395 90.3004C87.6609 90.3004 88.0824 90.3004 88.5038 90.3004C91.4539 90.7243 94.8255 91.9962 96.9327 94.5398C100.304 96.6595 101.569 100.899 101.147 104.714Z" fill="#FFD300"/>
<path d="M84.7111 94.5386C84.2896 94.5386 83.4467 94.5386 83.0253 94.5386C81.761 94.9625 80.0752 95.8104 79.2323 97.0823C77.1251 99.6259 75.8607 103.017 76.7036 106.409C77.5465 109.8 80.9181 112.344 84.2896 111.92C87.6612 111.496 90.6113 109.377 92.2971 106.409C93.9829 103.441 93.9829 100.05 91.8757 97.0823C90.1899 94.9626 87.6612 94.1147 84.7111 94.5386Z" fill="#FFD300"/>
<path d="M49.7308 136.509C48.4665 136.085 46.7807 136.085 45.5163 136.509C44.252 136.509 42.9876 136.509 42.1447 137.357C39.6161 139.053 38.3517 141.597 37.5088 144.14C37.0874 145.412 37.0874 147.108 37.0874 148.38C37.5088 150.075 37.9303 151.347 39.1946 152.619C41.3019 154.739 44.252 156.011 47.2021 155.163C52.6809 153.891 56.4739 147.532 55.2096 142.021C54.3667 139.477 52.2595 137.357 49.7308 136.509Z" fill="#FFD300"/>
<path d="M78.3892 282.344C82.6037 285.736 88.9254 285.736 92.7184 281.496C95.6685 278.105 96.9329 273.018 95.6685 268.778C95.2471 266.658 93.5613 264.539 91.8755 263.691C91.0326 263.267 90.6112 263.267 89.7683 262.843C87.6611 261.995 85.1324 261.995 83.0251 262.419C80.4965 263.267 77.9678 264.963 76.7034 267.506C75.4391 269.626 74.1748 272.17 74.5962 275.137C74.5962 278.105 75.8606 280.649 78.3892 282.344ZM78.3892 273.866C78.3892 273.018 78.8107 272.594 78.8107 272.17C78.8107 271.746 78.8107 271.746 79.2321 271.322V270.898C79.6536 270.474 79.6536 269.626 80.075 269.202C80.4965 268.778 80.4965 268.778 80.9179 268.354L81.3394 267.93C81.7608 268.354 82.6037 267.93 83.0251 267.93C82.6037 267.93 83.0252 267.93 83.4466 267.93H83.868C84.2895 267.93 84.2895 267.93 84.7109 267.506C85.1324 267.506 85.1324 267.506 85.5538 267.082H85.9753H86.3967H86.8182C87.2396 267.082 87.2396 267.082 87.6611 267.082H88.0825C88.504 267.082 88.504 267.506 88.9254 267.506C89.3468 267.506 89.7683 267.93 89.7683 267.93L90.1897 268.354C90.6112 268.778 90.6112 269.202 90.6112 269.202V269.626V270.05V270.474C90.6112 271.322 90.6112 272.17 90.6112 273.018C90.6112 273.442 90.6112 273.442 90.6112 273.018V273.442C90.6112 273.865 90.1897 274.29 90.1897 274.713C90.1897 274.713 90.1897 275.137 89.7683 275.137C89.7683 275.137 89.7683 275.137 89.7683 275.561C89.7683 275.985 89.3468 276.409 88.9254 276.833L88.5039 277.257C88.0825 277.681 88.0825 278.105 87.6611 278.105L87.2396 278.529L86.8182 278.953C86.8182 278.953 86.8182 278.953 86.3967 278.953C85.9753 278.953 85.5538 278.953 85.1324 279.377C85.1324 279.377 85.1324 279.377 84.7109 279.377C84.2895 279.377 84.2895 279.377 83.868 279.377H83.4466C83.0252 279.377 83.0252 279.377 82.6037 279.377C82.1823 279.377 81.7608 279.377 81.7608 278.953H81.3394C81.3394 278.953 81.3394 278.953 80.9179 278.953C80.4965 278.529 79.6536 278.529 79.2321 278.105C79.2321 278.105 79.2321 278.105 78.8107 277.681C78.3892 277.257 78.3892 277.257 77.9678 276.833C77.9678 276.409 77.5463 276.409 77.5463 275.985C77.5463 275.985 77.5463 275.985 77.5463 275.561C77.5463 275.137 77.5464 275.137 77.1249 274.713C77.1249 274.29 77.1249 274.289 77.1249 273.866C77.1249 274.289 77.1249 273.442 77.1249 273.442C78.3892 274.713 78.3892 274.713 78.3892 273.866Z" fill="#FFD300"/>
</svg>
