<svg width="21" height="22" viewBox="0 0 21 22" fill="none" xmlns="http://www.w3.org/2000/svg">
<path d="M4.86722 22H16.1328C18.8183 22 21 19.8147 21 17.1327L20.9988 5.78326C20.9988 3.09772 18.8136 0.916016 16.1316 0.916016H4.86725C2.18171 0.916016 0 3.10126 0 5.78326V17.1339C0 19.816 2.18521 22 4.86722 22ZM1.76656 5.78326C1.76656 4.07303 3.15592 2.6826 4.86722 2.6826H16.1328C17.843 2.6826 19.2334 4.07197 19.2334 5.78326V17.1339C19.2334 18.8441 17.844 20.2345 16.1328 20.2345L4.86722 20.2334C3.15698 20.2334 1.76656 18.844 1.76656 17.1327V5.78326Z" fill="#FFD300"/>
<path d="M10.4995 16.6201C13.3472 16.6201 15.6635 14.3026 15.6635 11.456C15.6635 8.60831 13.3472 6.29199 10.4995 6.29199C7.6518 6.29199 5.33545 8.60834 5.33545 11.456C5.33545 14.3037 7.6518 16.6201 10.4995 16.6201ZM10.4995 8.05858C12.3719 8.05858 13.8969 9.58365 13.8969 11.456C13.8969 13.3284 12.3719 14.8535 10.4995 14.8535C8.6271 14.8535 7.10204 13.3284 7.10204 11.456C7.10204 9.58365 8.6271 8.05858 10.4995 8.05858Z" fill="#FFD300"/>
<path d="M16.5824 4.46241C18.3203 5.18238 17.2403 7.78742 15.5025 7.0686C13.7658 6.34863 14.8446 3.74241 16.5824 4.46241Z" fill="#FFD300"/>
</svg>
