<svg width="100" height="100" viewBox="0 0 100 100" fill="none" xmlns="http://www.w3.org/2000/svg">
<path d="M100 50C100 77.6142 77.6142 100 50 100C22.3858 100 0 77.6142 0 50C0 22.3858 22.3858 0 50 0C77.6142 0 100 22.3858 100 50Z" fill="black"/>
<path d="M30.88 58.368C29.0347 58.368 27.632 57.7707 26.672 56.576C25.712 55.3813 25.232 53.6213 25.232 51.296V49.136C25.232 46.7787 25.7173 44.992 26.688 43.776C27.6587 42.56 29.104 41.952 31.024 41.952C31.9627 41.952 32.752 42.1013 33.392 42.4C34.0427 42.6987 34.5653 43.1253 34.96 43.68C35.3653 44.2347 35.648 44.8853 35.808 45.632H37.008L35.968 48.672C35.9467 47.936 35.792 47.3173 35.504 46.816C35.2267 46.304 34.8373 45.9147 34.336 45.648C33.8347 45.3813 33.2427 45.248 32.56 45.248C31.5253 45.248 30.7307 45.5467 30.176 46.144C29.632 46.7413 29.36 47.632 29.36 48.816V51.408C29.36 52.5813 29.632 53.4667 30.176 54.064C30.7307 54.6613 31.536 54.96 32.592 54.96C33.1893 54.96 33.7227 54.848 34.192 54.624C34.6613 54.4 35.0507 54.096 35.36 53.712C35.68 53.3173 35.9093 52.8747 36.048 52.384L37.024 54.672H35.872C35.7013 55.3547 35.424 55.9787 35.04 56.544C34.656 57.0987 34.128 57.5413 33.456 57.872C32.784 58.2027 31.9253 58.368 30.88 58.368ZM40 58H35.904L36.048 54.16L35.968 53.248V46.832L35.984 46.176L35.904 41.68V36.848H40V58Z" fill="#FFF200"/>
<path d="M51.7173 58H45.7492L42.3573 42.304H46.5493L48.8532 55.088H49.1413L51.4772 42.704H56.7573L59.1093 55.088H59.3812L61.7173 42.304H65.8613L62.4693 58H56.5173L54.5973 47.616L54.2453 45.68H54.0052L53.6533 47.616L51.7173 58Z" fill="#FFF200"/>
<path d="M72.3422 58H68.2302V36.848H72.3422V58Z" fill="#FFF200"/>
</svg>
