<svg width="291" height="383" viewBox="0 0 291 383" fill="none" xmlns="http://www.w3.org/2000/svg">
<path d="M143.263 17.9869C152.245 21.7562 161.34 25.1017 170.436 28.4472C179.475 32.0047 188.726 35.6188 197.764 39.1763C215.785 46.503 233.693 54.2534 251.487 62.4277C261.626 66.9613 271.441 71.8621 281.524 76.6076C281.864 75.3363 282.205 74.0651 282.546 72.7938C259.995 72.2016 237.615 70.9737 215.136 69.2654C203.763 68.4888 192.446 67.5003 181.186 66.2999C178.318 65.9856 175.662 65.7281 172.794 65.4138C170.138 65.1563 167.156 65.2657 164.939 64.2175C162.722 63.1692 161.806 60.653 160.989 58.6173C159.862 56.0443 158.735 53.4713 157.607 50.8984C152.323 39.2632 147.307 27.4729 141.484 16.1479C140.777 17.0937 140.069 18.0396 139.362 18.9854C140.209 19.2125 141.113 19.2277 142.074 19.0311C142.824 18.7776 143.149 18.4106 143.785 18.581C146.115 19.2055 146.755 15.9705 144.693 15.1909C143.846 14.9638 142.941 14.9486 141.98 15.1452C141.288 15.1868 140.962 15.5538 140.327 15.3835C139.112 14.831 137.33 16.3972 137.894 17.6837C142.289 28.3994 147.377 39.0736 152.254 49.6909C153.381 52.2639 154.72 54.8937 155.847 57.4666C157.032 59.8277 157.89 62.5558 159.4 64.5499C161.008 67.0246 163.013 68.0161 165.881 68.3304C168.749 68.6447 171.405 68.9022 174.273 69.2165C197.273 71.5189 220.388 73.3976 243.615 74.8525C256.586 75.6028 269.768 76.4099 282.795 76.9483C284.816 77.0355 285.61 74.0691 283.817 73.1344C266.405 64.3813 248.343 56.3622 230.435 48.6117C212.316 40.8045 194.083 33.421 175.737 26.4613C165.427 22.5632 155.117 18.6652 144.58 15.6146C142.828 15.3723 141.836 17.3776 143.263 17.9869Z" fill="#FFD300"/>
<path d="M161.302 68.4658C161.359 68.2539 161.628 68.0988 161.685 67.8869C160.951 67.2361 160.005 66.5284 159.214 66.0895C158.336 67.671 157.825 69.5779 157.159 71.2161C156.436 73.0663 155.982 74.7613 155.471 76.6683C154.294 80.2134 153.272 84.0273 152.307 87.6292C150.32 95.045 148.545 102.518 147.25 109.892C147.065 111.432 148.631 113.214 150.3 112.071C154.712 109.166 159.124 106.261 163.536 103.355C167.948 100.45 172.204 97.2755 176.772 94.6387C179.401 93.2995 176.594 89.368 174.275 91.2445C172.281 92.754 170.075 94.2068 167.925 95.4476C165.719 96.9004 163.513 98.3531 161.307 99.8058C156.895 102.711 152.752 105.462 148.34 108.367C149.286 109.075 150.232 109.782 151.389 110.547C152.741 102.961 154.459 95.7 156.446 88.2842C157.411 84.6822 158.377 81.0802 159.554 77.5351C160.065 75.6281 160.731 73.9899 161.242 72.083C161.753 70.1761 162.475 68.3259 162.774 66.3622C162.96 64.8223 160.629 64.1978 159.808 65.5674C159.751 65.7793 159.695 65.9911 159.426 66.1462C158.223 68.0947 160.058 69.7219 161.302 68.4658Z" fill="#FFD300"/>
<path d="M281.864 75.3356C254.955 80.8423 227.579 85.543 200.235 88.4351C192.505 89.3161 184.831 89.9851 177.158 90.6542C175.985 90.7941 174.528 91.9933 175.092 93.2798C180.812 107.53 186.531 121.779 192.251 136.029C192.659 137.047 194.184 138.137 195.315 137.304C217.463 120.757 240.075 105.015 263.153 90.0789C269.714 85.9325 276.332 81.5743 283.105 77.4848C285.523 76.0888 283.352 72.3277 280.934 73.7236C257.546 88.1222 234.411 103.27 212.166 119.337C205.703 123.964 199.452 128.648 193.201 133.331C194.203 133.827 195.263 134.111 196.265 134.607C190.546 120.357 184.826 106.107 179.163 91.6457C178.456 92.5915 177.805 93.3255 177.097 94.2713C204.695 92.1284 232.267 88.3887 259.502 82.515C267.248 80.7298 274.781 78.8878 282.64 76.6788C283.699 76.9627 283.094 74.9838 281.864 75.3356Z" fill="#FFD300"/>
<path d="M149.422 113.654C161.049 115.18 172.835 113.569 184.114 110.46C186.574 109.756 185.518 106.067 183.059 106.77C177.66 108.276 172.317 109.569 166.664 110.326C161.011 111.082 155.374 110.934 149.891 111.054C148.082 111.024 147.67 113.411 149.422 113.654Z" fill="#FFD300"/>
<path d="M137.283 79.2896C115.663 80.3093 94.1291 92.0254 81.4902 109.531C75.3334 118.101 71.7608 128.044 71.2112 138.57C70.5634 148.616 72.5716 158.919 77.2096 167.883C81.6925 176.578 88.9035 184.414 97.8288 188.396C106.118 192.206 117.068 192.869 125.03 187.736C128.904 185.14 131.792 181.145 132.617 176.37C133.4 170.903 131.683 165.447 128.297 161.133C120.594 150.894 106.141 149.746 94.5099 151.626C74.0741 155.006 56.2253 169.073 47.0333 187.275C42.3029 196.454 39.7329 206.893 40.1444 217.222C40.5408 228.456 44.2288 240.117 52.4992 248.238C60.0356 255.707 71.9992 259.367 82.3743 256.243C88.0423 254.582 93.3171 251 95.4856 245.449C97.5973 240.111 95.5698 234.117 91.3778 230.269C86.7206 225.614 79.7701 224.433 73.3833 224.539C68.1694 224.504 63.1522 225.431 58.2333 226.838C48.6074 229.709 39.4164 235.194 32.2723 242.364C17.5034 256.801 10.0175 277.959 14.9951 298.368C19.8175 318.509 35.4388 335.639 54.8445 342.882C59.6042 344.612 64.3224 345.649 69.4227 346.107C70.5389 346.179 71.5151 345.078 71.5871 343.962C71.504 342.577 70.5581 341.87 69.442 341.798C50.5806 340.15 33.7103 327.682 24.8844 311.464C20.4999 303.249 17.7272 294.104 17.9361 284.849C18.145 275.594 20.7982 266.54 25.3998 258.69C34.6597 242.776 51.4602 230.927 69.8451 229.268C75.6531 228.78 81.7713 228.83 86.826 232.001C90.878 234.677 93.8251 239.781 91.6718 244.427C89.7303 249.13 84.6827 251.865 79.8774 252.849C75.2839 253.889 70.1836 253.43 65.8476 251.814C45.9046 244.881 41.3853 219.371 46.4229 201.418C51.3054 183.197 64.7614 167.726 82.0231 160.089C91.2972 155.988 102.293 153.938 112.153 156.126C117.506 157.333 122.675 160.081 126.004 164.606C128.811 168.538 130.161 173.668 128.701 178.273C126.063 186.423 116.395 188.601 108.907 187.731C100.092 186.731 92.1993 181.437 86.7249 174.747C75.2541 160.773 72.4673 139.815 79.4534 123.065C87.1623 104.465 104.939 91.5156 123.71 85.872C128.417 84.4081 133.223 83.4248 138.028 82.4414C139.314 81.8778 138.879 79.2632 137.283 79.2896Z" fill="#FFD300"/>
<path d="M165.528 79.8175C163.7 84.0967 162.084 88.4326 160.313 92.4999C159.533 94.5619 158.542 96.5671 157.762 98.6292C156.771 100.634 155.779 102.64 155 104.702C154.334 106.34 157.031 107.29 157.64 105.864C158.632 103.858 159.2 101.739 160.036 99.4656C160.816 97.4035 161.652 95.1296 162.432 93.0676C164.048 88.7317 165.876 84.4525 167.435 80.3284C167.719 79.269 166.024 78.8149 165.528 79.8175Z" fill="#FFD300"/>
<path d="M167.268 90.2755C166.147 93.6088 164.603 96.8286 162.636 99.9348C162.14 100.937 163.665 102.027 164.217 100.813C166.03 97.4379 167.362 94.1613 168.539 90.6162C168.978 89.8254 167.495 89.428 167.268 90.2755Z" fill="#FFD300"/>
<path d="M193.026 102.628C201.138 101.168 209.462 99.7647 217.631 98.093C225.743 96.6332 234.068 95.2302 242.082 93.2899C243.792 92.8398 243.088 90.3803 241.435 90.6186C233.167 91.8097 225.153 93.75 216.984 95.4217C208.815 97.0934 200.646 98.765 192.632 100.705C191.191 101 191.853 102.767 193.026 102.628Z" fill="#FFD300"/>
<path d="M160.057 34.9771C178.755 43.1666 197.892 50.5652 217.086 57.7521C222.693 59.7087 228.088 61.6086 233.696 63.5652C235.179 63.9626 235.535 61.787 234.263 61.4464C215.013 54.4715 195.819 47.2847 176.894 39.9427C171.555 37.831 166.216 35.7192 160.666 33.5507C159.875 33.1118 159.209 34.75 160.057 34.9771Z" fill="#FFD300"/>
<path d="M250.264 68.6857C250.688 68.7992 250.9 68.856 251.38 68.7577L251.592 68.8144C251.592 68.8144 251.804 68.8712 251.861 68.6594C251.861 68.6594 252.129 68.5042 252.186 68.2923C252.243 68.0805 252.3 67.8686 252.088 67.8118C251.876 67.755 251.933 67.5432 251.721 67.4864C251.297 67.3729 251.085 67.3161 250.605 67.4144L250.393 67.3576C250.393 67.3576 250.181 67.3009 250.124 67.5128C250.124 67.5128 249.856 67.6679 249.799 67.8797C249.742 68.0916 249.685 68.3035 249.897 68.3603C249.84 68.5721 250.052 68.6289 250.264 68.6857Z" fill="#FFD300"/>
<path d="M180.713 59.5881C181.561 59.8152 181.901 58.5439 181.054 58.3168C180.206 58.0897 179.866 59.361 180.713 59.5881Z" fill="#FFD300"/>
</svg>
