<svg width="477" height="187" viewBox="0 0 477 187" fill="none" xmlns="http://www.w3.org/2000/svg">
<path d="M474.689 59.0017C466.696 56.1145 458.702 53.1533 450.708 50.2662C438.051 45.6763 425.394 41.0125 412.664 36.4226C410.221 35.5343 407.779 34.6459 405.336 33.7575C405.484 33.2393 405.632 32.6471 405.706 32.1289C406.446 28.9456 407.186 25.7623 407.927 22.6531C408.963 18.1373 408.963 13.6215 406.816 9.40177C403.856 3.62745 397.786 0.0740297 391.347 0C390.829 0 390.311 0 389.718 0C380.614 0 371.511 0 362.407 0C345.161 0 327.989 0 310.743 0C289.056 0 267.444 0 245.757 0C223.774 0 201.717 0 179.734 0C161.082 0 142.504 0 123.852 0C112.453 0 100.981 0 89.5822 0C87.8058 0 86.0294 0 84.327 0C77.5916 0.0740297 71.3001 3.9976 68.5615 10.2161C66.7111 14.3618 66.8591 18.5815 67.8214 22.8752C68.7095 26.5767 69.5237 30.2782 70.4119 33.9056C63.0103 36.5707 55.6087 39.3098 48.207 41.9749C35.5502 46.5647 22.8934 51.2286 10.1626 55.8184C7.27594 56.8548 4.31534 57.9653 1.42871 59.0017C0.170427 59.2978 -0.34776 60.7784 0.244371 61.9629C0.392404 62.259 0.540491 62.4811 0.76254 62.6291C11.791 75.9545 20.1548 91.3527 25.1139 107.861C31.0353 127.405 32.2194 148.282 28.7407 168.344C28.0745 171.971 26.5202 176.043 27.5564 179.744C28.8147 183.816 32.5155 186.407 36.7345 186.555C40.3613 186.629 43.9141 186.259 46.4306 183.372C49.0952 180.336 49.1692 175.969 49.6133 172.193C50.2055 167.529 50.5756 162.939 50.7236 158.276C73.4466 155.907 96.1696 153.982 118.967 152.427C144.132 150.725 169.298 149.614 194.537 149.022C220.961 148.356 247.311 148.356 273.735 148.874C298.826 149.392 323.918 150.428 348.936 151.983C372.177 153.39 395.344 155.314 418.511 157.609C420.805 157.831 423.1 158.053 425.395 158.35C425.469 161.089 425.691 163.754 425.913 166.419C426.209 170.268 426.727 174.044 427.319 177.893C427.985 182.187 430.872 185.815 435.313 186.481C438.569 186.999 442.418 186.777 445.083 184.778C448.784 182.039 449.302 177.893 448.414 173.674C444.343 154.87 444.417 135.104 448.784 116.375C453.003 98.1634 461.218 80.9145 472.691 66.0345C473.579 64.9241 474.467 63.7396 475.429 62.6291C475.652 62.4071 475.8 62.185 475.948 61.9629C476.392 60.7784 475.948 59.2978 474.689 59.0017ZM73.5206 11.1785C75.8151 7.10685 79.96 4.81193 84.623 4.7379C85.2892 4.7379 85.9554 4.7379 86.6215 4.7379C95.9476 4.7379 105.274 4.7379 114.6 4.7379C131.697 4.7379 148.795 4.7379 165.893 4.7379C187.21 4.7379 208.601 4.7379 229.917 4.7379C251.678 4.7379 273.513 4.7379 295.274 4.7379C313.704 4.7379 332.134 4.7379 350.564 4.7379C362.11 4.7379 373.657 4.7379 385.204 4.7379C387.202 4.7379 389.2 4.7379 391.199 4.7379C396.084 4.81193 400.377 7.40297 402.523 11.7707C404.226 15.1021 403.782 18.5815 402.968 21.9868C398.823 39.754 394.678 57.5211 390.459 75.2882C390.237 76.3247 389.941 77.3611 389.718 78.3975C387.646 78.3975 385.5 78.3975 383.427 78.3975C375.951 78.3975 368.476 78.3975 361 78.3975C349.972 78.3975 338.943 78.3975 327.915 78.3975C314.444 78.3975 300.899 78.3975 287.428 78.3975C272.699 78.3975 257.969 78.3975 243.24 78.3975C228.363 78.3975 213.486 78.3975 198.608 78.3975C184.767 78.3975 170.852 78.3975 157.011 78.3975C145.316 78.3975 133.548 78.3975 121.853 78.3975C113.415 78.3975 104.904 78.3975 96.4657 78.3975C92.9869 78.3975 89.3601 78.2494 85.8814 78.3234C82.2546 62.7032 78.5537 47.1569 74.9269 31.5367C74.1867 28.2794 73.3726 24.948 72.6324 21.6907C71.8182 18.0632 71.5962 14.5838 73.5206 11.1785ZM416.809 107.343C407.631 107.343 398.526 107.343 389.348 107.343C389.348 107.343 389.349 107.343 389.275 107.343C375.729 107.343 362.111 107.343 348.566 107.343H348.491C331.986 107.343 315.48 107.343 299.048 107.343C298.974 107.343 298.974 107.343 298.9 107.343C280.84 107.343 262.78 107.343 244.721 107.343C244.646 107.343 244.572 107.343 244.498 107.343C226.29 107.343 208.008 107.343 189.8 107.343C189.726 107.343 189.652 107.343 189.578 107.343C172.555 107.343 155.531 107.343 138.581 107.343H138.507C124.148 107.343 109.789 107.343 95.4295 107.343H95.3554C84.9931 107.343 74.6308 107.343 64.2685 107.343C64.2685 107.343 64.2685 107.343 64.1945 107.343C61.0858 107.343 57.9032 107.195 54.7945 107.195C63.5284 100.088 72.2624 92.9813 81.0703 85.8005C82.1805 84.9121 83.2168 84.0237 84.327 83.1354C86.9916 83.1354 89.6562 83.1354 92.3208 83.1354C99.7964 83.1354 107.272 83.1354 114.748 83.1354C125.776 83.1354 136.805 83.1354 147.833 83.1354C161.304 83.1354 174.849 83.1354 188.32 83.1354C203.049 83.1354 217.779 83.1354 232.508 83.1354C247.385 83.1354 262.262 83.1354 277.14 83.1354C290.981 83.1354 304.896 83.1354 318.737 83.1354C330.431 83.1354 342.2 83.1354 353.895 83.1354C362.333 83.1354 370.844 83.1354 379.282 83.1354C383.279 83.1354 387.276 83.2094 391.273 83.1354C391.347 83.1354 391.495 83.1354 391.569 83.1354C401.413 91.1306 411.257 99.1258 421.027 107.121C421.101 107.195 421.175 107.195 421.175 107.269C419.769 107.343 418.289 107.343 416.809 107.343ZM424.95 111.489C424.95 119.632 424.95 127.775 424.95 135.919C422.212 135.919 419.547 135.919 416.809 135.919C407.631 135.919 398.526 135.919 389.348 135.919C375.803 135.919 362.184 135.919 348.639 135.919C332.06 135.919 315.554 135.919 298.975 135.919C280.915 135.919 262.854 135.919 244.794 135.919C226.438 135.919 208.082 135.919 189.726 135.919C172.703 135.919 155.679 135.919 138.729 135.919C124.296 135.919 109.863 135.919 95.4295 135.919C85.0672 135.919 74.7049 135.919 64.3426 135.919C59.9757 135.919 55.4607 135.697 51.0197 135.845C51.0197 127.701 51.0197 119.558 51.0197 111.415C53.7583 111.415 56.4229 111.415 59.1615 111.415C68.2655 111.415 77.4435 111.415 86.5475 111.415C86.5475 111.415 86.5475 111.415 86.6215 111.415C100.167 111.415 113.786 111.415 127.331 111.415H127.405C143.91 111.415 160.416 111.415 176.848 111.415C176.922 111.415 176.921 111.415 176.996 111.415C195.055 111.415 213.115 111.415 231.175 111.415C231.249 111.415 231.324 111.415 231.398 111.415C249.606 111.415 267.888 111.415 286.096 111.415C286.17 111.415 286.244 111.415 286.318 111.415C303.341 111.415 320.365 111.415 337.315 111.415H337.389C351.748 111.415 366.107 111.415 380.466 111.415H380.541C390.903 111.415 401.265 111.415 411.627 111.415C415.994 111.415 420.509 111.711 424.95 111.489ZM46.2826 166.419C45.9865 169.972 45.5424 173.6 45.0243 177.153C44.7282 179.078 43.9881 180.781 42.2117 181.817C40.8794 182.557 39.473 182.557 37.9927 182.557C36.5124 182.557 35.1061 182.483 33.7738 181.595C32.2935 180.559 31.3313 178.856 31.4053 177.079C31.4053 175.45 31.9974 173.748 32.2935 172.119C32.6636 170.268 32.9597 168.418 33.2557 166.567C36.2164 147.245 35.1061 127.405 29.7029 108.602C24.9659 92.093 16.8981 76.5467 6.31377 62.9993C8.31221 62.9993 10.3106 62.9993 12.3091 62.9993C16.602 63.0733 20.6729 65.0721 23.1894 68.5515C25.632 71.9569 27.5564 75.8805 29.4808 79.656C34.0699 88.5396 37.7707 97.9413 40.5833 107.491C46.0605 126.591 47.985 146.579 46.2826 166.419ZM47.4669 107.935C46.9487 108.38 46.8007 108.972 46.8747 109.564C46.8747 111.637 46.8747 113.784 46.8747 115.857C46.5786 114.746 46.3566 113.562 46.0605 112.451C43.3959 101.791 39.6211 91.5007 34.9581 81.5808C32.9596 77.4351 30.8132 73.4375 28.5187 69.5139C26.2242 65.5163 23.4855 62.185 19.1185 60.3342C17.2681 59.5199 15.3437 59.1498 13.4193 59.0017C17.7863 57.373 22.2273 55.8184 26.5943 54.1898C39.2511 49.5999 51.9078 44.936 64.6386 40.3462C66.9331 39.5319 69.2277 38.6435 71.5222 37.8292C71.9663 39.754 72.4104 41.6047 72.8545 43.5295C68.0434 45.5283 63.2324 47.5271 58.4213 49.5999C57.237 50.1181 57.7551 52.0429 58.9394 51.5247C63.7505 49.5259 68.5615 47.5271 73.2986 45.5283C75.7411 55.8924 78.1836 66.2566 80.5521 76.6208C80.8482 77.8793 81.1443 79.1378 81.4404 80.3223C81.1443 80.5443 80.8483 80.8405 80.6262 81.0626C77.8136 83.3575 75.001 85.6524 72.1883 87.9473C65.3048 93.5736 58.4213 99.1258 51.5378 104.752C50.1314 105.788 48.7991 106.899 47.4669 107.935ZM425.32 154.204C402.819 151.835 380.319 149.91 357.818 148.43C333.022 146.801 308.153 145.616 283.283 145.024C256.933 144.358 230.583 144.284 204.234 144.802C178.846 145.246 153.384 146.283 127.997 147.837C104.459 149.244 80.9963 151.169 57.5331 153.538C55.3866 153.76 53.1661 153.982 51.0197 154.204C51.0937 149.466 50.9456 144.728 50.5755 140.064C53.4621 140.064 56.3489 140.064 59.1615 140.064C68.3395 140.064 77.4435 140.064 86.6215 140.064C100.167 140.064 113.786 140.064 127.331 140.064C143.91 140.064 160.416 140.064 176.996 140.064C195.055 140.064 213.115 140.064 231.175 140.064C249.532 140.064 267.888 140.064 286.244 140.064C303.268 140.064 320.291 140.064 337.241 140.064C351.674 140.064 366.107 140.064 380.541 140.064C390.903 140.064 401.265 140.064 411.627 140.064C416.364 140.064 421.028 140.138 425.765 140.064C425.395 144.728 425.246 149.466 425.32 154.204ZM428.429 107.935C428.281 107.787 428.133 107.713 427.985 107.639C417.031 98.7557 406.076 89.7981 395.122 80.9145C394.9 80.7664 394.678 80.5443 394.456 80.3223C397.194 68.6996 399.933 57.0029 402.671 45.3802C407.556 47.453 412.442 49.4519 417.401 51.5247C418.585 52.0429 419.103 50.0441 417.919 49.5999C412.96 47.5271 408.075 45.4543 403.116 43.4555C403.56 41.5307 404.004 39.6799 404.448 37.7552C411.923 40.4943 419.399 43.2334 426.801 45.8984C438.791 50.2662 450.782 54.6339 462.773 59.0017C458.554 59.2978 454.631 61.0005 451.596 64.0357C448.562 67.0709 446.563 71.3647 444.565 75.1402C439.68 84.3199 435.609 94.0178 432.5 104.012C431.094 108.454 429.983 112.969 428.947 117.485C428.947 114.968 428.947 112.377 428.947 109.86C429.243 109.194 429.095 108.528 428.429 107.935ZM448.932 101.125C442.196 120.15 439.902 140.656 442.196 160.645C442.64 164.494 443.232 168.27 443.973 172.045C444.639 175.45 445.971 179.226 442.492 181.521C440.494 182.927 436.201 182.927 434.054 181.743C430.798 179.892 430.946 175.302 430.576 171.971C428.355 153.242 429.243 134.142 433.61 115.782C436.053 105.492 439.458 95.4243 443.825 85.8745C445.675 81.8029 447.747 77.7312 449.968 73.8076C452.04 70.1062 453.965 66.5527 457.814 64.4799C459.738 63.5175 461.811 63.0733 463.883 62.9993C465.881 62.9993 467.88 62.9993 469.878 62.9993C460.922 74.4739 453.817 87.3551 448.932 101.125Z" fill="#FFD300"/>
<path d="M82.8467 29.1674C83.7349 32.4988 84.6971 35.7561 85.5853 39.0874C87.4357 45.602 89.2121 52.1907 91.0625 58.7053C91.8027 61.4444 92.8389 64.0354 94.6893 66.3304C97.872 70.2539 102.683 72.4748 107.79 72.5489C108.826 72.5489 109.789 72.5489 110.825 72.5489C117.856 72.5489 124.962 72.5489 131.994 72.5489C144.132 72.5489 156.271 72.5489 168.41 72.5489C183.583 72.5489 198.756 72.5489 213.93 72.5489C230.065 72.5489 246.275 72.5489 262.41 72.5489C277.51 72.5489 292.609 72.5489 307.782 72.5489C319.773 72.5489 331.764 72.5489 343.754 72.5489C350.712 72.5489 357.595 72.5489 364.553 72.5489C365.441 72.5489 366.403 72.5489 367.292 72.5489C372.473 72.4748 377.358 70.1799 380.615 66.1083C382.391 63.8134 383.279 61.2963 384.093 58.5572C385.944 51.8946 387.794 45.3059 389.645 38.6432C390.533 35.3859 391.495 32.0546 392.383 28.7973C392.827 27.1686 393.419 25.4659 393.641 23.7633C394.752 15.546 386.61 10.2899 379.282 10.2158C375.063 10.2158 370.77 10.2158 366.552 10.2158C356.781 10.2158 347.011 10.2158 337.241 10.2158C323.696 10.2158 310.151 10.2158 296.606 10.2158C280.915 10.2158 265.223 10.2158 249.458 10.2158C233.396 10.2158 217.334 10.2158 201.273 10.2158C186.47 10.2158 171.592 10.2158 156.789 10.2158C144.946 10.2158 133.104 10.2158 121.261 10.2158C114.082 10.2158 106.976 10.2158 99.7964 10.2158C98.5381 10.2158 97.2059 10.2158 95.9476 10.2158C88.4719 10.2899 80.1081 15.9161 81.7365 24.2815C81.8845 25.9842 82.4026 27.6128 82.8467 29.1674ZM95.8736 11.2522C100.093 11.2522 104.237 11.2522 108.456 11.2522C118.004 11.2522 127.553 11.2522 137.027 11.2522C150.276 11.2522 163.525 11.2522 176.848 11.2522C192.243 11.2522 207.564 11.2522 222.96 11.2522C238.799 11.2522 254.713 11.2522 270.552 11.2522C285.281 11.2522 300.011 11.2522 314.74 11.2522C326.731 11.2522 338.721 11.2522 350.712 11.2522C358.336 11.2522 365.959 11.2522 373.583 11.2522C375.285 11.2522 376.914 11.2522 378.616 11.2522C384.611 11.2522 391.421 14.3615 392.457 20.9501C392.827 23.2451 392.087 25.3919 391.421 27.6128C390.607 30.648 389.719 33.7573 388.904 36.7925C387.054 43.6032 385.13 50.414 383.279 57.2247C382.761 59.2235 382.243 61.2223 381.281 63.0731C378.542 68.3292 373.065 71.4384 367.218 71.5865C363.591 71.5865 359.964 71.5865 356.337 71.5865C346.863 71.5865 337.315 71.5865 327.841 71.5865C314.296 71.5865 300.677 71.5865 287.132 71.5865C271.588 71.5865 256.119 71.5865 240.576 71.5865C224.81 71.5865 209.045 71.5865 193.353 71.5865C179.512 71.5865 165.671 71.5865 151.83 71.5865C141.69 71.5865 131.475 71.5865 121.335 71.5865C116.894 71.5865 112.453 71.5865 108.012 71.5865C100.463 71.5125 94.3932 66.6265 92.3948 59.3716C90.7664 53.4492 89.1381 47.5268 87.5097 41.6044C85.9553 36.1262 84.401 30.648 82.9207 25.1698C80.6262 16.9525 88.3979 11.3263 95.8736 11.2522Z" fill="#FFD300"/>
</svg>
